PathFileType	4	(X/Y/Z)	 s10c0001.trc
DataRate	CameraRate	NumFrames	NumMarkers	Units	OrigDataRate	OrigDataStartFrame	OrigNumFrames
200	200	5	49	mm	200	1001	2000
Frame#	Time	racr			lacr			c7			jug			rlel			rdr			llel			ldr			s2			lic			ric			lasi			rasi			rpsi			lpsi			rgt			lgt			rth1			rth2			rth3			rth4			rlfc			rmfc			rsh1			rsh2			rsh3			rsh4			rlmal			rmmal			rcal			rtoe			rmt5			rmt1			lth1			lth2			lth4			lth3			llfc			lmfc			llmal			lmmal			lcal			lmt1			lmt5			lsh1			lsh2			lsh3			lsh4			ltoe			
		X1	Y1	Z1	X2	Y2	Z2	X3	Y3	Z3	X4	Y4	Z4	X5	Y5	Z5	X6	Y6	Z6	X7	Y7	Z7	X8	Y8	Z8	X9	Y9	Z9	X10	Y10	Z10	X11	Y11	Z11	X12	Y12	Z12	X13	Y13	Z13	X14	Y14	Z14	X15	Y15	Z15	X16	Y16	Z16	X17	Y17	Z17	X18	Y18	Z18	X19	Y19	Z19	X20	Y20	Z20	X21	Y21	Z21	X22	Y22	Z22	X23	Y23	Z23	X24	Y24	Z24	X25	Y25	Z25	X26	Y26	Z26	X27	Y27	Z27	X28	Y28	Z28	X29	Y29	Z29	X30	Y30	Z30	X31	Y31	Z31	X32	Y32	Z32	X33	Y33	Z33	X34	Y34	Z34	X35	Y35	Z35	X36	Y36	Z36	X37	Y37	Z37	X38	Y38	Z38	X39	Y39	Z39	X40	Y40	Z40	X41	Y41	Z41	X42	Y42	Z42	X43	Y43	Z43	X44	Y44	Z44	X45	Y45	Z45	X46	Y46	Z46	X47	Y47	Z47	X48	Y48	Z48	X49	Y49	Z49	
1001	5.0050	462.277570	1378.133388	684.236244	482.503335	1387.249047	306.043147	430.565065	1426.757583	485.782958	562.435138	1375.544785	502.898958	454.901284	1122.446317	817.549355	476.286913	910.661305	930.829855	481.913619	1109.229262	195.141953	536.170201	906.826246	90.978255	386.694088	931.920661	496.601716	534.745137	994.069465	351.083979	538.608165	1001.503076	648.734249	597.403403	918.531675	383.427022	581.373333	907.586168	638.469125	405.176571	972.429183	558.976979	405.706301	984.094071	445.457698	464.306314	853.811860	684.127808	471.078885	854.589273	308.308807	484.020096	729.218582	714.822414	506.462888	643.283529	700.427739	484.421117	561.508003	691.774637	543.242595	646.081044	691.807335	493.548712	459.321181	674.969004	481.584662	441.186056	562.397275	447.668642	360.070134	716.835173	468.782391	273.213280	714.652999	444.206486	190.558830	716.673074	500.486581	274.205143	691.490394	454.092435	84.984622	709.942503	483.546072	95.880045	630.070060	420.287950	50.325934	655.049572	652.007995	85.066818	711.287756	566.111533	42.155013	755.900368	609.737440	46.713498	658.367071	493.377948	746.210711	282.761696	515.193864	665.090289	292.296918	549.890070	666.247392	304.852998	494.182712	577.890430	301.069606	495.552469	472.749250	315.028376	491.124107	454.762022	425.444362	450.747025	103.862079	284.014225	469.863456	100.995612	362.300706	411.030937	58.724223	327.083381	612.113609	47.386902	347.334468	579.614489	46.099873	245.171769	446.228447	364.306350	269.851566	472.448323	281.446247	275.722699	451.902295	194.306271	273.325612	501.470215	283.099453	301.553307	653.370000	92.350931	295.263956	
1002	5.0100	462.288680	1378.135566	684.259412	482.526976	1387.249386	306.056394	430.512604	1426.774717	485.895096	562.437408	1375.552782	502.900500	454.859957	1122.374569	817.515393	476.320487	910.674822	930.839830	481.983389	1109.252671	195.134204	536.169121	906.841685	90.976797	386.713765	931.926958	496.634681	534.741002	994.059637	351.094406	538.633620	1001.510281	648.753747	597.412878	918.527749	383.421737	581.381645	907.604165	638.476707	405.326050	972.386414	558.992494	405.748482	984.088755	445.488551	464.369249	853.817309	684.163011	471.089059	854.591841	308.326133	484.030971	729.213132	714.829330	506.504790	643.287572	700.453083	484.426261	561.517769	691.785407	543.270569	646.115848	691.844654	493.564750	459.329367	674.993260	481.608890	441.192676	562.402430	447.720505	360.117152	716.854710	468.776268	273.207310	714.668500	444.171507	190.572137	716.667920	500.487846	274.205356	691.505118	454.132950	84.999514	709.973826	483.547826	95.883145	630.063128	420.366005	50.305638	655.087550	652.027081	85.053554	711.325297	566.205924	42.201932	755.891805	609.734250	46.712499	658.372287	493.384734	746.214952	282.771961	515.207460	665.075570	292.345733	549.847792	666.268819	304.804092	494.179501	577.897019	301.059811	495.555753	472.745986	315.009851	491.145786	454.774515	425.476084	450.771838	103.851072	284.037159	469.903603	101.013120	362.322650	411.053039	58.721578	327.078185	612.154514	47.404704	347.355566	579.612291	46.110901	245.171250	446.247389	364.298595	269.839186	472.463214	281.435393	275.744888	451.899336	194.295183	273.326776	501.478734	283.081335	301.561197	653.385295	92.351431	295.274591	
1003	5.0150	462.293442	1378.137721	684.278331	482.545400	1387.270628	306.088584	430.536002	1426.772997	485.921821	562.435729	1375.544094	502.907786	454.883425	1122.461436	817.561498	476.317836	910.691635	930.869125	482.017472	1109.283689	195.115345	536.152773	906.856452	90.974728	386.712283	931.940350	496.629110	534.759570	994.058121	351.085989	538.656986	1001.527986	648.768884	597.402273	918.548360	383.436303	581.381255	907.609159	638.484884	405.432062	972.364960	558.979648	405.745279	984.123289	445.506542	464.363733	853.825632	684.173860	471.094653	854.604733	308.325192	484.044055	729.237205	714.847656	506.509652	643.314376	700.484628	484.438634	561.522779	691.790022	543.318342	646.122510	691.889133	493.581507	459.339272	675.005794	481.635339	441.197453	562.404478	447.702572	360.088491	716.869120	468.774329	273.204038	714.658495	444.182292	190.571120	716.662855	500.479336	274.213126	691.477992	454.163207	84.997674	709.972233	483.558692	95.882479	630.073269	420.291307	50.486442	654.999916	652.039161	85.057257	711.335346	566.163781	42.168797	755.927717	609.738649	46.724759	658.389214	493.398047	746.201658	282.751711	515.193767	665.088981	292.296505	549.902661	666.259749	304.900841	494.179578	577.896764	301.060030	495.556573	472.735532	315.013385	491.191734	454.803183	425.483113	450.795583	103.862396	284.038733	469.939018	101.029207	362.345122	411.050813	58.741568	327.101895	612.172209	47.410942	347.346470	579.641253	46.097885	245.173505	446.240312	364.300381	269.845453	472.478075	281.431450	275.749039	451.926904	194.316492	273.322388	501.500387	283.075795	301.561067	653.394913	92.368797	295.306293	
1004	5.0200	462.289142	1378.143292	684.275046	482.556140	1387.273247	306.087543	430.528572	1426.781589	485.928104	562.429646	1375.533992	502.906509	454.811371	1122.375137	817.494086	476.329561	910.696347	930.885451	482.000089	1109.304575	195.086336	536.127981	906.871373	90.956270	386.702257	931.933568	496.630464	534.746475	994.068148	351.073267	538.640108	1001.534861	648.769552	597.393553	918.534390	383.427078	581.384067	907.611205	638.497586	405.470962	972.344713	558.983146	405.748524	984.109586	445.483786	464.383607	853.836410	684.169636	471.104493	854.606510	308.327838	484.043970	729.232343	714.842936	506.510809	643.348888	700.492614	484.437790	561.524248	691.796784	543.310790	646.132377	691.895185	493.583070	459.353126	675.007353	481.656141	441.198552	562.401720	447.704729	360.097659	716.878973	468.775494	273.204211	714.668249	444.197795	190.562359	716.664019	500.473048	274.211061	691.508978	454.180747	85.013533	709.991604	483.543894	95.879879	630.078405	420.306816	50.480305	655.020904	652.035010	85.067028	711.324586	566.244561	42.220841	755.910510	609.735634	46.712661	658.376793	493.397824	746.219223	282.735445	515.193767	665.088970	292.296501	549.888474	666.277308	304.852040	494.202246	577.896809	301.061982	495.537745	472.730898	315.018813	491.190728	454.801416	425.472619	450.807162	103.875745	284.031857	469.955947	101.036224	362.347928	411.074884	58.735037	327.095027	612.181579	47.415855	347.357350	579.638469	46.128918	245.175749	446.255975	364.298202	269.828394	472.488236	281.438819	275.738023	451.918285	194.298421	273.318993	501.502637	283.094515	301.565109	653.397813	92.378806	295.294284	
1005	5.0250	462.277357	1378.152836	684.281573	482.538996	1387.282187	306.076875	430.520368	1426.781230	485.926448	562.420506	1375.543117	502.912509	454.802448	1122.373216	817.488875	476.330193	910.704366	930.891419	481.974204	1109.321548	195.092690	536.115207	906.873236	90.911644	386.709183	931.942900	496.601434	534.748109	994.066561	351.081131	538.628782	1001.524488	648.758085	597.393472	918.530031	383.428178	581.374914	907.613225	638.485938	405.359735	972.390272	558.967955	405.731434	984.112868	445.477002	464.367610	853.836651	684.153762	471.093937	854.602942	308.307009	484.033370	729.246662	714.836625	506.498409	643.315688	700.470917	484.430813	561.521188	691.781062	543.275436	646.131969	691.865393	493.580273	459.351569	674.985992	481.663424	441.194137	562.392455	447.735381	360.119431	716.846484	468.772384	273.204315	714.660517	444.183405	190.571599	716.662385	500.477584	274.215716	691.503141	454.179118	85.011987	709.972914	483.528759	95.880407	630.071809	420.269846	50.490898	655.010406	652.039092	85.061155	711.326889	566.239532	42.220831	755.892218	609.748348	46.711806	658.385810	493.419401	746.207884	282.751247	515.235264	665.070089	292.345728	549.888380	666.276001	304.851631	494.195752	577.902320	301.040205	495.565694	472.753787	315.004215	491.193982	454.781439	425.462143	450.804051	103.880292	284.031611	469.959828	101.044340	362.326159	411.056908	58.742407	327.090351	612.166090	47.419734	347.348994	579.644534	46.097112	245.183295	446.256062	364.296316	269.822960	472.504718	281.433853	275.726554	451.933387	194.284436	273.323517	501.474206	283.089299	301.542067	653.406811	92.381107	295.277383	
